<svg width="1200" height="860" viewBox="0 0 1200 860" fill="none" xmlns="http://www.w3.org/2000/svg" role="img" aria-labelledby="hero-trust-title hero-trust-desc">
  <title id="hero-trust-title">LocalCloud trust layer illustration</title>
  <desc id="hero-trust-desc">A detailed homepage illustration showing cloud requests redirected through LocalCloud's localhost trust layer into a laptop runtime using official service icons.</desc>
  <defs>
    <linearGradient id="hlt-bg" x1="0" y1="0" x2="1200" y2="860" gradientUnits="userSpaceOnUse">
      <stop offset="0" stop-color="#FCFEFF"/>
      <stop offset="1" stop-color="#EAF3FF"/>
    </linearGradient>
    <linearGradient id="hlt-line" x1="0" y1="0" x2="1" y2="0">
      <stop offset="0" stop-color="#2C72F6" stop-opacity="0"/>
      <stop offset="0.45" stop-color="#2C72F6" stop-opacity="0.95"/>
      <stop offset="1" stop-color="#2C72F6" stop-opacity="0"/>
    </linearGradient>
    <radialGradient id="hlt-halo" cx="50%" cy="50%" r="50%">
      <stop offset="0%" stop-color="#DCEAFF"/>
      <stop offset="100%" stop-color="#DCEAFF" stop-opacity="0"/>
    </radialGradient>
    <filter id="hlt-shadow" x="-20%" y="-20%" width="140%" height="140%">
      <feDropShadow dx="0" dy="26" stdDeviation="24" flood-color="#6A8FCC" flood-opacity="0.2"/>
    </filter>
  </defs>

  <rect width="1200" height="860" rx="34" fill="url(#hlt-bg)"/>
  <circle cx="148" cy="122" r="140" fill="#DBE8FF" fill-opacity="0.42"/>
  <circle cx="1038" cy="706" r="168" fill="#DBE8FF" fill-opacity="0.32"/>

  <g opacity="0.45" stroke="#D2DFF3" stroke-width="1.2">
    <path d="M72 722L320 590L620 668L912 560L1120 634"/>
    <path d="M110 204L330 254L590 172L894 238L1096 176"/>
    <path d="M228 96L228 754"/>
    <path d="M488 72L488 780"/>
    <path d="M760 72L760 780"/>
    <path d="M1018 118L1018 748"/>
  </g>

  <g transform="translate(62 82)">
    <circle cx="88" cy="44" r="48" fill="#DCE8FB"/>
    <circle cx="136" cy="36" r="40" fill="#DCE8FB"/>
    <circle cx="176" cy="58" r="32" fill="#DCE8FB"/>
    <rect x="74" y="58" width="136" height="40" rx="20" fill="#DCE8FB"/>
    <text x="92" y="44" fill="#2C72F6" font-family="IBM Plex Mono, monospace" font-size="14" letter-spacing="1.6">PUBLIC GCP TRAFFIC</text>
  </g>

  <g transform="translate(84 228)" filter="url(#hlt-shadow)">
    <rect width="232" height="224" rx="28" fill="#FFFFFF" stroke="#D4E2F4" stroke-width="2"/>
    <text x="28" y="42" fill="#6B7F9D" font-family="IBM Plex Mono, monospace" font-size="15" letter-spacing="1.8">UNCHANGED SDKS</text>
    <rect x="28" y="64" width="176" height="38" rx="19" fill="#F8FBFF" stroke="#D7E5F6" stroke-width="2"/>
    <text x="48" y="88" fill="#2C72F6" font-family="IBM Plex Mono, monospace" font-size="12">storage.Client()</text>
    <rect x="28" y="114" width="176" height="38" rx="19" fill="#F8FBFF" stroke="#D7E5F6" stroke-width="2"/>
    <text x="48" y="138" fill="#2C72F6" font-family="IBM Plex Mono, monospace" font-size="12">pubsub.NewClient()</text>
    <rect x="28" y="164" width="176" height="38" rx="19" fill="#F8FBFF" stroke="#D7E5F6" stroke-width="2"/>
    <text x="48" y="188" fill="#2C72F6" font-family="IBM Plex Mono, monospace" font-size="12">spanner.NewClient()</text>
    <text x="28" y="232" fill="#58708F" font-family="IBM Plex Sans, sans-serif" font-size="19">Point the same SDKs at localhost with generated emulator vars.</text>
  </g>

  <path d="M320 340C422 338 470 344 554 396" fill="none" stroke="url(#hlt-line)" stroke-width="16" stroke-linecap="round" stroke-dasharray="16 18">
    <animate attributeName="stroke-dashoffset" from="0" to="-68" dur="3s" repeatCount="indefinite"/>
  </path>

  <g transform="translate(520 238)">
    <circle cx="110" cy="162" r="154" fill="url(#hlt-halo)"/>
    <circle cx="110" cy="162" r="126" fill="none" stroke="#BCD2F6" stroke-width="2"/>
    <circle cx="110" cy="162" r="98" fill="none" stroke="#2C72F6" stroke-width="3.5" stroke-dasharray="12 14">
      <animate attributeName="stroke-dashoffset" from="0" to="-52" dur="3.4s" repeatCount="indefinite"/>
    </circle>
    <circle cx="110" cy="162" r="72" fill="none" stroke="#79A8FF" stroke-width="2.5" opacity="0.7">
      <animate attributeName="r" values="70;80;70" dur="2.6s" repeatCount="indefinite"/>
    </circle>
  </g>

  <g transform="translate(560 274)" filter="url(#hlt-shadow)">
    <rect width="248" height="186" rx="28" fill="#FBFDFF" stroke="#D0E0F5" stroke-width="2"/>
    <rect x="20" y="18" width="208" height="106" rx="18" fill="#0F1C30"/>
    <rect x="42" y="40" width="84" height="10" rx="5" fill="#7AA3FB"/>
    <rect x="42" y="66" width="136" height="8" rx="4" fill="#45617C"/>
    <rect x="42" y="84" width="152" height="8" rx="4" fill="#45617C"/>
    <rect x="42" y="102" width="118" height="8" rx="4" fill="#45617C"/>
    <rect x="30" y="138" width="188" height="28" rx="14" fill="#FFFFFF" stroke="#D0E0F5" stroke-width="2"/>
    <text x="48" y="157" fill="#6B7F9D" font-family="IBM Plex Mono, monospace" font-size="11" letter-spacing="1.4">/_localcloud/env?format=shell</text>
    <circle cx="192" cy="152" r="8" fill="#61D8A0">
      <animate attributeName="opacity" values="1;0.45;1" dur="2s" repeatCount="indefinite"/>
    </circle>
  </g>

  <g transform="translate(560 104)">
    <rect width="176" height="42" rx="21" fill="#FFFFFF" stroke="#D4E2F4" stroke-width="2"/>
    <text x="26" y="27" fill="#2C72F6" font-family="IBM Plex Mono, monospace" font-size="13" letter-spacing="1.4">LOCAL TRUST LAYER</text>
  </g>

  <path d="M808 366C898 348 954 350 1030 396" fill="none" stroke="url(#hlt-line)" stroke-width="14" stroke-linecap="round" stroke-dasharray="14 16">
    <animate attributeName="stroke-dashoffset" from="0" to="-60" dur="3.6s" repeatCount="indefinite"/>
  </path>

  <g transform="translate(858 150)" filter="url(#hlt-shadow)">
    <rect width="276" height="364" rx="30" fill="#FBFDFF" stroke="#D0E0F5" stroke-width="2"/>
    <rect x="18" y="18" width="240" height="156" rx="20" fill="#0F1C30"/>
    <text x="36" y="46" fill="#8CA8D6" font-family="IBM Plex Mono, monospace" font-size="12" letter-spacing="1.4">LOCALCLOUD DASHBOARD</text>
    <rect x="36" y="62" width="72" height="10" rx="5" fill="#7AA3FB"/>
    <rect x="124" y="62" width="48" height="10" rx="5" fill="#61D8A0"/>
    <rect x="188" y="62" width="34" height="10" rx="5" fill="#F8C36D"/>
    <rect x="36" y="94" width="64" height="54" rx="16" fill="#172940"/>
    <rect x="106" y="94" width="64" height="54" rx="16" fill="#172940"/>
    <rect x="176" y="94" width="64" height="54" rx="16" fill="#172940"/>
    <image href="../icons/gcs.svg" x="54" y="108" width="28" height="28"/>
    <image href="../icons/pubsub.svg" x="124" y="108" width="28" height="28"/>
    <image href="../icons/spanner.svg" x="194" y="108" width="28" height="28"/>
    <text x="44" y="210" fill="#12233D" font-family="IBM Plex Sans, sans-serif" font-size="24" font-weight="600">One container. Local endpoints. Real service shapes.</text>
    <rect x="30" y="246" width="216" height="42" rx="21" fill="#EFF5FF" stroke="#D6E4F7" stroke-width="2"/>
    <text x="52" y="272" fill="#2C72F6" font-family="IBM Plex Mono, monospace" font-size="12">15 services ready · 0 cloud spend</text>
    <rect x="30" y="304" width="100" height="32" rx="16" fill="#FFFFFF" stroke="#D6E4F7" stroke-width="2"/>
    <text x="48" y="324" fill="#12233D" font-family="IBM Plex Sans, sans-serif" font-size="15" font-weight="600">Gateway :8080</text>
    <rect x="146" y="304" width="100" height="32" rx="16" fill="#FFFFFF" stroke="#D6E4F7" stroke-width="2"/>
    <text x="162" y="324" fill="#12233D" font-family="IBM Plex Sans, sans-serif" font-size="15" font-weight="600">SDK handoff</text>
  </g>

  <g transform="translate(864 548)">
    <rect width="248" height="44" rx="22" fill="#FFFFFF" stroke="#D4E2F4" stroke-width="2"/>
    <text x="26" y="28" fill="#2C72F6" font-family="IBM Plex Mono, monospace" font-size="13">localhost before shared accounts</text>
  </g>
</svg>
