<svg width="1200" height="760" viewBox="0 0 1200 760" fill="none" xmlns="http://www.w3.org/2000/svg" role="img" aria-labelledby="runtime-overview-title runtime-overview-desc">
  <title id="runtime-overview-title">LocalCloud runtime overview</title>
  <desc id="runtime-overview-desc">Diagram showing a single Docker container that contains the Armeria gateway, LocalCloud facade services, external emulator paths, and PostgreSQL-backed persistence.</desc>
  <defs>
    <linearGradient id="runtime-bg" x1="140" y1="60" x2="1040" y2="700" gradientUnits="userSpaceOnUse">
      <stop offset="0" stop-color="#F8FBFF"/>
      <stop offset="1" stop-color="#ECF3FE"/>
    </linearGradient>
    <linearGradient id="runtime-accent" x1="188" y1="166" x2="1012" y2="166" gradientUnits="userSpaceOnUse">
      <stop offset="0" stop-color="#2C72F6"/>
      <stop offset="1" stop-color="#70A1FF"/>
    </linearGradient>
    <filter id="runtime-shadow" x="108" y="42" width="984" height="676" filterUnits="userSpaceOnUse" color-interpolation-filters="sRGB">
      <feFlood flood-opacity="0" result="BackgroundImageFix"/>
      <feColorMatrix in="SourceAlpha" type="matrix" values="0 0 0 0 0 0 0 0 0 0 0 0 0 0 0 0 0 0 127 0" result="hardAlpha"/>
      <feOffset dy="22"/>
      <feGaussianBlur stdDeviation="28"/>
      <feColorMatrix type="matrix" values="0 0 0 0 0.203922 0 0 0 0 0.345098 0 0 0 0 0.552941 0 0 0 0.16 0"/>
      <feBlend mode="normal" in2="BackgroundImageFix" result="effect1_dropShadow_0_1"/>
      <feBlend mode="normal" in="SourceGraphic" in2="effect1_dropShadow_0_1" result="shape"/>
    </filter>
  </defs>

  <rect width="1200" height="760" rx="32" fill="#F4F8FD"/>
  <circle cx="210" cy="116" r="124" fill="#D9E7FF" fill-opacity="0.4"/>
  <circle cx="1024" cy="640" r="136" fill="#D9E7FF" fill-opacity="0.35"/>

  <g filter="url(#runtime-shadow)">
    <rect x="164" y="96" width="872" height="564" rx="30" fill="url(#runtime-bg)" stroke="#C8D9F0" stroke-width="2"/>
  </g>

  <rect x="188" y="120" width="824" height="92" rx="24" fill="#FDFEFF" stroke="#D4E1F3" stroke-width="2"/>
  <circle cx="228" cy="166" r="14" fill="#2C72F6" fill-opacity="0.16"/>
  <circle cx="228" cy="166" r="7" fill="#2C72F6"/>
  <text x="256" y="154" fill="#6B7F9D" font-family="IBM Plex Mono, monospace" font-size="16" letter-spacing="2">SINGLE CONTAINER</text>
  <text x="256" y="187" fill="#12233D" font-family="IBM Plex Sans, sans-serif" font-size="34" font-weight="600">LocalCloud runtime</text>
  <text x="790" y="154" fill="#6B7F9D" font-family="IBM Plex Mono, monospace" font-size="15" letter-spacing="1.6">docker run -d ...</text>
  <rect x="790" y="170" width="184" height="18" rx="9" fill="#E8F0FF"/>
  <rect x="790" y="170" width="126" height="18" rx="9" fill="url(#runtime-accent)"/>

  <rect x="208" y="236" width="784" height="140" rx="28" fill="#FFFFFF" stroke="#CEDDEF" stroke-width="2"/>
  <rect x="232" y="260" width="736" height="18" rx="9" fill="#EAF1FE"/>
  <rect x="232" y="260" width="276" height="18" rx="9" fill="url(#runtime-accent)"/>
  <text x="232" y="310" fill="#12233D" font-family="IBM Plex Sans, sans-serif" font-size="38" font-weight="600">Armeria gateway</text>
  <text x="232" y="340" fill="#5D718F" font-family="IBM Plex Sans, sans-serif" font-size="21">Admin API, web console, facade routing, and local service orchestration on :8080</text>

  <rect x="234" y="402" width="236" height="118" rx="22" fill="#F8FBFF" stroke="#D4E1F3" stroke-width="2"/>
  <rect x="244" y="416" width="92" height="10" rx="5" fill="#2C72F6" fill-opacity="0.16"/>
  <text x="244" y="451" fill="#12233D" font-family="IBM Plex Sans, sans-serif" font-size="25" font-weight="600">Built-in surfaces</text>
  <text x="244" y="482" fill="#5D718F" font-family="IBM Plex Sans, sans-serif" font-size="19">Admin API</text>
  <text x="244" y="508" fill="#5D718F" font-family="IBM Plex Sans, sans-serif" font-size="19">Web Console</text>

  <rect x="482" y="402" width="264" height="118" rx="22" fill="#F8FBFF" stroke="#D4E1F3" stroke-width="2"/>
  <rect x="492" y="416" width="102" height="10" rx="5" fill="#2C72F6" fill-opacity="0.16"/>
  <text x="492" y="451" fill="#12233D" font-family="IBM Plex Sans, sans-serif" font-size="25" font-weight="600">Facade services</text>
  <text x="492" y="482" fill="#5D718F" font-family="IBM Plex Sans, sans-serif" font-size="19">Secret Manager, Tasks, Logging</text>
  <text x="492" y="508" fill="#5D718F" font-family="IBM Plex Sans, sans-serif" font-size="19">Monitoring, Workflows, Compute</text>

  <rect x="758" y="402" width="210" height="118" rx="22" fill="#F8FBFF" stroke="#D4E1F3" stroke-width="2"/>
  <rect x="768" y="416" width="86" height="10" rx="5" fill="#2C72F6" fill-opacity="0.16"/>
  <text x="768" y="451" fill="#12233D" font-family="IBM Plex Sans, sans-serif" font-size="25" font-weight="600">Memorystore</text>
  <text x="768" y="482" fill="#5D718F" font-family="IBM Plex Sans, sans-serif" font-size="19">RESP2 protocol</text>
  <text x="768" y="508" fill="#5D718F" font-family="IBM Plex Sans, sans-serif" font-size="19">Redis-compatible on :6379</text>

  <rect x="208" y="548" width="784" height="72" rx="24" fill="#0F1C30"/>
  <text x="234" y="578" fill="#8CA8D6" font-family="IBM Plex Mono, monospace" font-size="16" letter-spacing="2">EXTERNAL EMULATOR PATHS</text>
  <text x="234" y="605" fill="#F6FAFF" font-family="IBM Plex Sans, sans-serif" font-size="21">Cloud Storage :4443</text>
  <text x="448" y="605" fill="#F6FAFF" font-family="IBM Plex Sans, sans-serif" font-size="21">Pub/Sub :8085</text>
  <text x="602" y="605" fill="#F6FAFF" font-family="IBM Plex Sans, sans-serif" font-size="21">Firestore :8086</text>
  <text x="774" y="605" fill="#F6FAFF" font-family="IBM Plex Sans, sans-serif" font-size="21">Bigtable :8087</text>
  <text x="922" y="605" fill="#F6FAFF" font-family="IBM Plex Sans, sans-serif" font-size="21" text-anchor="end">Spanner :9010   BigQuery :9050</text>

  <rect x="880" y="252" width="112" height="104" rx="24" fill="#F8FBFF" stroke="#D4E1F3" stroke-width="2"/>
  <text x="904" y="292" fill="#6B7F9D" font-family="IBM Plex Mono, monospace" font-size="13" letter-spacing="1.5">PERSISTENCE</text>
  <text x="904" y="327" fill="#12233D" font-family="IBM Plex Sans, sans-serif" font-size="24" font-weight="600">PostgreSQL</text>
  <text x="904" y="350" fill="#5D718F" font-family="IBM Plex Sans, sans-serif" font-size="18">plus blob storage</text>

  <path d="M815 322C845 322 860 322 880 322" stroke="#93B7FF" stroke-width="4" stroke-linecap="round"/>
  <path d="M720 520C720 536 720 548 720 548" stroke="#93B7FF" stroke-width="4" stroke-linecap="round"/>
  <path d="M868 356C868 400 868 432 868 432" stroke="#93B7FF" stroke-width="4" stroke-linecap="round" stroke-dasharray="8 10"/>
</svg>
