<svg xmlns="http://www.w3.org/2000/svg" height="24" viewBox="0 0 24 24" width="24"><defs><style>.cls-1{fill:#aecbfa;}.cls-2{fill:#669df6;}.cls-3{fill:#4285f4;}.cls-4{fill:#fff;}</style></defs><title>Icon_24px_CloudStorage_Color</title><g data-name="Product Icons"><rect class="cls-1" height="7" width="20" x="2" y="4"/><rect class="cls-2" height="7" width="2" x="20" y="4"/><polygon class="cls-3" points="22 4 20 4 20 11 22 4"/><rect class="cls-2" height="7" width="2" x="2" y="4"/><rect class="cls-4" height="1" width="6" x="6" y="7"/><rect class="cls-4" height="3" rx="1.5" width="3" x="15" y="6"/><rect class="cls-1" height="7" width="20" x="2" y="13"/><rect class="cls-2" height="7" width="2" x="20" y="13"/><polygon class="cls-3" points="22 13 20 13 20 20 22 13"/><rect class="cls-2" height="7" width="2" x="2" y="13"/><rect class="cls-4" height="1" width="6" x="6" y="16"/><rect class="cls-4" height="3" rx="1.5" width="3" x="15" y="15"/></g></svg>