<svg xmlns="http://www.w3.org/2000/svg" viewBox="0 0 96 96" role="img" aria-labelledby="localcloud-mark-title localcloud-mark-desc">
  <title id="localcloud-mark-title">LocalCloud mark</title>
  <desc id="localcloud-mark-desc">A blue rounded container with a cloud, local runtime box, and service nodes.</desc>
  <defs>
    <linearGradient id="lc-blue" x1="18" y1="12" x2="78" y2="86" gradientUnits="userSpaceOnUse">
      <stop offset="0" stop-color="#67A4FF"/>
      <stop offset="0.44" stop-color="#1A73E8"/>
      <stop offset="1" stop-color="#0B57D0"/>
    </linearGradient>
    <linearGradient id="lc-cloud" x1="25" y1="22" x2="69" y2="62" gradientUnits="userSpaceOnUse">
      <stop offset="0" stop-color="#FFFFFF"/>
      <stop offset="1" stop-color="#E8F0FE"/>
    </linearGradient>
    <filter id="lc-shadow" x="0" y="0" width="96" height="96" color-interpolation-filters="sRGB">
      <feDropShadow dx="0" dy="14" stdDeviation="10" flood-color="#0B57D0" flood-opacity="0.24"/>
    </filter>
  </defs>
  <rect x="8" y="8" width="80" height="80" rx="25" fill="url(#lc-blue)" filter="url(#lc-shadow)"/>
  <rect x="14" y="14" width="68" height="68" rx="20" fill="none" stroke="#FFFFFF" stroke-opacity="0.22" stroke-width="2"/>
  <path d="M31.6 54.6c-7.1 0-12.6-4.9-12.6-11.2 0-5.7 4.6-10.5 10.6-11.1C31.6 23.7 38.9 18 47.9 18c8.2 0 15.2 4.8 18 11.8 6.7 1.2 11.7 6.4 11.7 12.6 0 6.9-6.1 12.2-13.8 12.2H31.6Z" fill="url(#lc-cloud)"/>
  <rect x="28" y="47" width="40" height="27" rx="9" fill="#F8FBFF" stroke="#A8C7FA" stroke-width="2"/>
  <path d="M38 57h20M38 64h13" stroke="#1A73E8" stroke-width="4" stroke-linecap="round"/>
  <circle cx="62" cy="64" r="4.5" fill="#34A853"/>
  <circle cx="25" cy="25" r="4" fill="#FBBC04"/>
  <circle cx="72" cy="28" r="4" fill="#EA4335"/>
  <circle cx="72" cy="70" r="4" fill="#34A853"/>
</svg>
